<?xml version="1.0" encoding="UTF-8" standalone="no"?>
<!-- Generator: Adobe Illustrator 16.1.0, SVG Export Plug-In . SVG Version: 6.00 Build 0)  -->

<svg
   xmlns:ns0="https://launchpad.net/jessyink"
   xmlns:dc="http://purl.org/dc/elements/1.1/"
   xmlns:cc="http://creativecommons.org/ns#"
   xmlns:rdf="http://www.w3.org/1999/02/22-rdf-syntax-ns#"
   xmlns:svg="http://www.w3.org/2000/svg"
   xmlns="http://www.w3.org/2000/svg"
   xmlns:sodipodi="http://sodipodi.sourceforge.net/DTD/sodipodi-0.dtd"
   xmlns:inkscape="http://www.inkscape.org/namespaces/inkscape"
   version="1.1"
   id="Layer_1"
   x="0px"
   y="0px"
   width="216"
   height="55"
   viewBox="0 0 216 55"
   enable-background="new 0 0 116 55"
   xml:space="preserve"
   inkscape:version="0.48.3.1 r9886"
   sodipodi:docname="no_content_bg.svg"><metadata
   id="metadata91"><rdf:RDF><cc:Work
       rdf:about=""><dc:format>image/svg+xml</dc:format><dc:type
         rdf:resource="http://purl.org/dc/dcmitype/StillImage" /></cc:Work></rdf:RDF></metadata><defs
   id="defs89" /><sodipodi:namedview
   pagecolor="#ffffff"
   bordercolor="#666666"
   borderopacity="1"
   objecttolerance="10"
   gridtolerance="10"
   guidetolerance="10"
   inkscape:pageopacity="0"
   inkscape:pageshadow="2"
   inkscape:window-width="1615"
   inkscape:window-height="1026"
   id="namedview87"
   showgrid="false"
   inkscape:zoom="4.684025"
   inkscape:cx="95.472825"
   inkscape:cy="17.22318"
   inkscape:window-x="65"
   inkscape:window-y="24"
   inkscape:window-maximized="1"
   inkscape:current-layer="Layer_1" />




<path
   sodipodi:nodetypes="cccccccccc"
   inkscape:connector-curvature="0"
   id="path3179"
   d="m 11.540888,37.392666 1.929829,-25.651523 -12.0178772,0 5.8688934,-8.7083963 10.6314518,0.085638 c 1.847708,4.79e-5 3.433108,0.4220624 4.756203,1.2660387 1.779275,1.1634353 2.668922,2.9769507 2.668951,5.4405538 -2.9e-5,0.3650278 -0.02283,0.7414148 -0.06844,1.1291698 l -0.47396,7.044464 z"
   style="font-size:144px;font-style:normal;font-variant:normal;font-weight:bold;font-stretch:normal;text-align:start;line-height:125%;letter-spacing:0px;word-spacing:0px;writing-mode:lr-tb;text-anchor:start;fill:#ffffff;fill-opacity:1;stroke:none;font-family:Magneto;-inkscape-font-specification:Magneto Bold" /><g
   style="fill:#ffffff"
   id="g3181"
   transform="matrix(0.48664612,0,0,0.48664612,-79.767112,-228.69206)"><path
     style="font-size:144px;font-style:normal;font-variant:normal;font-weight:bold;font-stretch:normal;text-align:start;line-height:125%;letter-spacing:0px;word-spacing:0px;writing-mode:lr-tb;text-anchor:start;fill:#ffffff;fill-opacity:1;stroke:none;font-family:Magneto;-inkscape-font-specification:Magneto Bold"
     d="m 244.39735,486.88981 c 2.39053,-3.79679 4.52334,-6.37491 6.39843,-7.73438 2.62491,-1.8749 6.21084,-2.8124 10.75782,-2.8125 l 6.89062,0 0,62.36719 37.47492,-54.4935 c 2.97173,-5.75516 9.5409,-7.75973 14.56397,-7.87369 l 9.76729,0 -61.03274,90 c -3.32824,5.95313 -8.41417,8.92969 -15.25781,8.92969 l -8.78907,0 -0.0181,-60.09279 -34.57568,51.44435 c -3.82241,5.68727 -9.1641,8.64844 -16.38281,8.64844 l -9.72105,0 z"
     id="path3183"
     ns0:effectIn="name:fade;order:1;length:800"
     inkscape:connector-curvature="0"
     sodipodi:nodetypes="cccccccccsccsscc" /><path
     style="font-size:64px;font-style:normal;font-variant:normal;font-weight:bold;font-stretch:normal;text-align:start;line-height:125%;letter-spacing:0px;word-spacing:0px;writing-mode:lr-tb;text-anchor:start;fill:#ffffff;fill-opacity:1;stroke:none;font-family:Magneto;-inkscape-font-specification:Magneto Bold"
     id="path3185"
     d="m 335.95612,551.78788 c -0.83338,3.33335 -3.33338,5.00001 -7.5,5 l -19.5625,0 c 0.68748,0.45835 1.24998,1.29689 1.6875,2.51562 0.43748,1.21877 0.61456,2.27606 0.53125,3.17188 -0.29169,3.47917 -1.82294,6.20834 -4.59375,8.1875 -2.64585,1.89583 -6.08335,2.85416 -10.3125,2.875 -4.91667,0.0417 -8.69792,-0.92708 -11.34375,-2.90625 -2.35416,-1.75 -3.53125,-4.05208 -3.53125,-6.90625 0,-0.56249 0.0521,-1.12499 0.15625,-1.6875 0.54167,-3.14582 2.10417,-5.61457 4.6875,-7.40625 2.75,-1.89581 6.41666,-2.84373 11,-2.84375 z m -34.0625,5 -7.15625,0 -2.8125,8 c -0.14584,0.41667 -0.21876,0.81251 -0.21875,1.1875 -10e-6,1.79167 1.66666,2.6875 5,2.6875 0.39582,0 0.73957,-0.0104 1.03125,-0.0312 z"
     inkscape:connector-curvature="0" /><path
     style="font-size:64px;font-style:normal;font-variant:normal;font-weight:bold;font-stretch:normal;text-align:start;line-height:125%;letter-spacing:0px;word-spacing:0px;writing-mode:lr-tb;text-anchor:start;fill:#ffffff;fill-opacity:1;stroke:none;font-family:Magneto;-inkscape-font-specification:Magneto Bold"
     id="path3187"
     d="m 361.79987,568.03788 c -1.0417,3.33333 -3.59378,5 -7.65625,5 l -11.90625,0 c -3.43752,0 -5.12501,-1.08333 -5.0625,-3.25 -2.29168,2.6875 -5.36459,4.03125 -9.21875,4.03125 -2.52084,0 -4.5625,-0.70833 -6.125,-2.125 -1.625,-1.45833 -2.4375,-3.4375 -2.4375,-5.9375 0,-4.52082 1.83334,-8.06249 5.5,-10.625 3.22916,-2.22915 7.19791,-3.34373 11.90625,-3.34375 l 6.5,0 5.84375,-16.5 11.375,0 -11.625,32.75 z m -20.21875,-11.25 -7.9375,0 -2.375,6.71875 c -0.20834,0.62501 -0.31251,1.18751 -0.3125,1.6875 -10e-6,1.39584 0.88541,2.28125 2.65625,2.65625 0.62499,0.125 1.95832,0.1875 4,0.1875 z"
     inkscape:connector-curvature="0" /><path
     style="font-size:64px;font-style:normal;font-variant:normal;font-weight:bold;font-stretch:normal;text-align:start;line-height:125%;letter-spacing:0px;word-spacing:0px;writing-mode:lr-tb;text-anchor:start;fill:#ffffff;fill-opacity:1;stroke:none;font-family:Magneto;-inkscape-font-specification:Magneto Bold"
     id="path3189"
     d="m 400.92487,568.03788 c -0.43754,1.60417 -1.43753,2.86458 -3,3.78125 -1.39586,0.8125 -2.98961,1.21875 -4.78125,1.21875 l -17.40625,0 c -10.125,0 -15.1875,-3.05208 -15.1875,-9.15625 0,-3.91665 1.72917,-6.98957 5.1875,-9.21875 2.97916,-1.91665 6.52083,-2.87498 10.625,-2.875 l 4.53125,0 c 2.64581,2e-5 4.96873,0.40627 6.96875,1.21875 2.66664,1.08335 4.06247,2.72918 4.1875,4.9375 0.10414,2.22918 -0.96878,4.08334 -3.21875,5.5625 l -10.34375,0 3.375,-6.71875 -6.59375,0 -2.5625,7.53125 c -0.14584,0.43751 -0.21876,0.83334 -0.21875,1.1875 -10e-6,1.6875 1.35416,2.53125 4.0625,2.53125 z"
     inkscape:connector-curvature="0" /><path
     style="font-size:64px;font-style:normal;font-variant:normal;font-weight:bold;font-stretch:normal;text-align:start;line-height:125%;letter-spacing:0px;word-spacing:0px;writing-mode:lr-tb;text-anchor:start;fill:#ffffff;fill-opacity:1;stroke:none;font-family:Magneto;-inkscape-font-specification:Magneto Bold"
     id="path3191"
     d="m 450.95612,551.78788 -5.65625,16.25 c -1.54171,3.33333 -4.13545,5 -7.78125,5 l -15.8125,0 c -2.77085,0 -4.31251,-0.91667 -4.625,-2.75 -1.52084,1.83333 -3.71876,2.75 -6.59375,2.75 l -5.5625,0 c -3.08333,0 -4.625,-1.09375 -4.625,-3.28125 0,-0.52083 0.11459,-1.09375 0.34375,-1.71875 l 5.6875,-16.25 11.34375,0 -5.84375,16.25 5.4375,0 5.84375,-16.25 11.1875,0 -5.6875,16.25 5.3125,0 5.8125,-16.25 z"
     inkscape:connector-curvature="0" /><path
     style="font-size:64px;font-style:normal;font-variant:normal;font-weight:bold;font-stretch:normal;text-align:start;line-height:125%;letter-spacing:0px;word-spacing:0px;writing-mode:lr-tb;text-anchor:start;fill:#ffffff;fill-opacity:1;stroke:none;font-family:Magneto;-inkscape-font-specification:Magneto Bold"
     id="path3193"
     d="m 506.95612,551.78788 c -0.83338,3.33335 -3.33338,5.00001 -7.5,5 l -19.5625,0 c 0.68748,0.45835 1.24998,1.29689 1.6875,2.51562 0.43748,1.21877 0.61456,2.27606 0.53125,3.17188 -0.29169,3.47917 -1.82294,6.20834 -4.59375,8.1875 -2.64585,1.89583 -6.08335,2.85416 -10.3125,2.875 -4.91667,0.0417 -8.69792,-0.92708 -11.34375,-2.90625 -2.35416,-1.75 -3.53125,-4.05208 -3.53125,-6.90625 0,-0.56249 0.0521,-1.12499 0.15625,-1.6875 0.54167,-3.14582 2.10417,-5.61457 4.6875,-7.40625 2.75,-1.89581 6.41666,-2.84373 11,-2.84375 z m -34.0625,5 -7.15625,0 -2.8125,8 c -0.14584,0.41667 -0.21876,0.81251 -0.21875,1.1875 -10e-6,1.79167 1.66666,2.6875 5,2.6875 0.39582,0 0.73957,-0.0104 1.03125,-0.0312 z"
     inkscape:connector-curvature="0" /><path
     style="font-size:64px;font-style:normal;font-variant:normal;font-weight:bold;font-stretch:normal;text-align:start;line-height:125%;letter-spacing:0px;word-spacing:0px;writing-mode:lr-tb;text-anchor:start;fill:#ffffff;fill-opacity:1;stroke:none;font-family:Magneto;-inkscape-font-specification:Magneto Bold"
     id="path3195"
     d="m 527.61237,568.03788 c -3e-5,1.45834 -0.80212,2.6875 -2.40625,3.6875 -1.4167,0.875 -2.89586,1.3125 -4.4375,1.3125 l -11.96875,0 c -3.16668,0 -4.75001,-1.3125 -4.75,-3.9375 -10e-6,-0.66666 0.13541,-1.38541 0.40625,-2.15625 l 3.53125,-10.15625 -6.65625,0 -3.46875,8.96875 c -0.58334,1.52084 -1.84375,2.28125 -3.78125,2.28125 l -3.3125,0 4.09375,-11.25 c -1.29167,-0.29165 -2.33854,-0.94269 -3.14062,-1.95313 -0.80208,-1.01039 -1.20313,-2.17185 -1.20313,-3.48437 0,-2.39581 1.11459,-4.24998 3.34375,-5.5625 1.85417,-1.08331 4.0625,-1.62497 6.625,-1.625 l 5.0625,0 -2.625,7.625 17.28125,0 -5.6875,16.25 z"
     inkscape:connector-curvature="0" /><path
     style="font-size:64px;font-style:normal;font-variant:normal;font-weight:bold;font-stretch:normal;text-align:start;line-height:125%;letter-spacing:0px;word-spacing:0px;writing-mode:lr-tb;text-anchor:start;fill:#ffffff;fill-opacity:1;stroke:none;font-family:Magneto;-inkscape-font-specification:Magneto Bold"
     id="path3197"
     d="m 570.51862,568.03788 c -0.52087,1.83334 -1.71879,3.1875 -3.59375,4.0625 -1.31253,0.625 -2.71878,0.9375 -4.21875,0.9375 l -12.28125,0 c -2.85418,0 -4.28126,-1.10417 -4.28125,-3.3125 -1e-5,-0.6875 0.14582,-1.4375 0.4375,-2.25 l 3.21875,-8.71875 c -0.95835,1.00001 -4.78126,4.47918 -11.46875,10.4375 -1.64584,1.5 -2.89584,2.47917 -3.75,2.9375 -1.125,0.60417 -2.47917,0.90625 -4.0625,0.90625 l -4.65625,0 13.3125,-37.6875 11.25,0 -8.3125,23.34375 12.46875,-12.40625 7.1875,0 -7.25,7.5 2.375,0 c 2.8958,2e-5 4.34372,1.1146 4.34375,3.34375 -3e-5,0.70835 -0.1667,1.53126 -0.5,2.46875 l -3.0625,8.4375 z"
     inkscape:connector-curvature="0" /><path
     style="font-size:64px;font-style:normal;font-variant:normal;font-weight:bold;font-stretch:normal;text-align:start;line-height:125%;letter-spacing:0px;word-spacing:0px;writing-mode:lr-tb;text-anchor:start;fill:#ffffff;fill-opacity:1;stroke:none;font-family:Magneto;-inkscape-font-specification:Magneto Bold"
     id="path3199"
     d="m 608.39362,568.03788 c -0.0834,1.39584 -0.88024,2.57813 -2.39062,3.54687 -1.51045,0.96875 -3.16149,1.45313 -4.95313,1.45313 l -23.75,0 c -4.5625,0 -6.84375,-1.39583 -6.84375,-4.1875 0,-0.25 0.0208,-0.52083 0.0625,-0.8125 0.16667,-1.25 0.83334,-2.21874 2,-2.90625 1,-0.60416 2.14583,-0.89583 3.4375,-0.875 2.25,0.0625 5.30208,1.30209 9.15625,3.71875 1.10415,-1.37499 1.65624,-2.77083 1.65625,-4.1875 -1e-5,-0.70832 -0.44793,-2.32291 -1.34375,-4.84375 l -3.53125,3.21875 -6.25,0 8.3125,-7.6875 c -0.37501,-0.64582 -0.63543,-1.17706 -0.78125,-1.59375 -0.27084,-0.77081 -0.41668,-1.64581 -0.4375,-2.625 l 7.6875,-8.1875 c 3.45831,0.58336 5.18748,2.15628 5.1875,4.71875 -2e-5,1.50002 -0.44794,2.88544 -1.34375,4.15625 0.77081,2.04169 1.55206,4.08335 2.34375,6.125 0.95831,2.62501 1.43748,4.75001 1.4375,6.375 -2e-5,1.79167 -0.70836,3.32292 -2.125,4.59375 z"
     inkscape:connector-curvature="0" /></g><path
   style="font-size:144px;font-style:normal;font-variant:normal;font-weight:bold;font-stretch:normal;text-align:start;line-height:125%;letter-spacing:0px;word-spacing:0px;writing-mode:lr-tb;text-anchor:start;fill:#b3b3b3;fill-opacity:1;stroke:none;font-family:Magneto;-inkscape-font-specification:Magneto Bold"
   d="m 10.608346,36.03314 1.929829,-25.651523 -12.01787721,0 5.86889341,-8.7083955 10.6314518,0.085638 c 1.847708,4.79e-5 3.433108,0.4220624 4.756203,1.2660387 1.779275,1.1634353 2.668922,2.9769507 2.668951,5.4405535 -2.9e-5,0.3650282 -0.02283,0.7414146 -0.06844,1.1291692 l -0.47396,7.0444641 z"
   id="path3774"
   inkscape:connector-curvature="0"
   sodipodi:nodetypes="cccccccccc" /><g
   transform="matrix(0.48664612,0,0,0.48664612,-80.699654,-230.05158)"
   id="g2993"
   style="fill:#cccccc"><path
     sodipodi:nodetypes="cccccccccsccsscc"
     inkscape:connector-curvature="0"
     ns0:effectIn="name:fade;order:1;length:800"
     id="path3779"
     d="m 244.39735,486.88981 c 2.39053,-3.79679 4.52334,-6.37491 6.39843,-7.73438 2.62491,-1.8749 6.21084,-2.8124 10.75782,-2.8125 l 6.89062,0 0,62.36719 37.47492,-54.4935 c 2.97173,-5.75516 9.5409,-7.75973 14.56397,-7.87369 l 9.76729,0 -61.03274,90 c -3.32824,5.95313 -8.41417,8.92969 -15.25781,8.92969 l -8.78907,0 -0.0181,-60.09279 -34.57568,51.44435 c -3.82241,5.68727 -9.1641,8.64844 -16.38281,8.64844 l -9.72105,0 z"
     style="font-size:144px;font-style:normal;font-variant:normal;font-weight:bold;font-stretch:normal;text-align:start;line-height:125%;letter-spacing:0px;word-spacing:0px;writing-mode:lr-tb;text-anchor:start;fill:#cccccc;fill-opacity:1;stroke:none;font-family:Magneto;-inkscape-font-specification:Magneto Bold" /><path
     inkscape:connector-curvature="0"
     d="m 335.95612,551.78788 c -0.83338,3.33335 -3.33338,5.00001 -7.5,5 l -19.5625,0 c 0.68748,0.45835 1.24998,1.29689 1.6875,2.51562 0.43748,1.21877 0.61456,2.27606 0.53125,3.17188 -0.29169,3.47917 -1.82294,6.20834 -4.59375,8.1875 -2.64585,1.89583 -6.08335,2.85416 -10.3125,2.875 -4.91667,0.0417 -8.69792,-0.92708 -11.34375,-2.90625 -2.35416,-1.75 -3.53125,-4.05208 -3.53125,-6.90625 0,-0.56249 0.0521,-1.12499 0.15625,-1.6875 0.54167,-3.14582 2.10417,-5.61457 4.6875,-7.40625 2.75,-1.89581 6.41666,-2.84373 11,-2.84375 z m -34.0625,5 -7.15625,0 -2.8125,8 c -0.14584,0.41667 -0.21876,0.81251 -0.21875,1.1875 -10e-6,1.79167 1.66666,2.6875 5,2.6875 0.39582,0 0.73957,-0.0104 1.03125,-0.0312 z"
     id="path2995"
     style="font-size:64px;font-style:normal;font-variant:normal;font-weight:bold;font-stretch:normal;text-align:start;line-height:125%;letter-spacing:0px;word-spacing:0px;writing-mode:lr-tb;text-anchor:start;fill:#cccccc;fill-opacity:1;stroke:none;font-family:Magneto;-inkscape-font-specification:Magneto Bold" /><path
     inkscape:connector-curvature="0"
     d="m 361.79987,568.03788 c -1.0417,3.33333 -3.59378,5 -7.65625,5 l -11.90625,0 c -3.43752,0 -5.12501,-1.08333 -5.0625,-3.25 -2.29168,2.6875 -5.36459,4.03125 -9.21875,4.03125 -2.52084,0 -4.5625,-0.70833 -6.125,-2.125 -1.625,-1.45833 -2.4375,-3.4375 -2.4375,-5.9375 0,-4.52082 1.83334,-8.06249 5.5,-10.625 3.22916,-2.22915 7.19791,-3.34373 11.90625,-3.34375 l 6.5,0 5.84375,-16.5 11.375,0 -11.625,32.75 z m -20.21875,-11.25 -7.9375,0 -2.375,6.71875 c -0.20834,0.62501 -0.31251,1.18751 -0.3125,1.6875 -10e-6,1.39584 0.88541,2.28125 2.65625,2.65625 0.62499,0.125 1.95832,0.1875 4,0.1875 z"
     id="path2997"
     style="font-size:64px;font-style:normal;font-variant:normal;font-weight:bold;font-stretch:normal;text-align:start;line-height:125%;letter-spacing:0px;word-spacing:0px;writing-mode:lr-tb;text-anchor:start;fill:#cccccc;fill-opacity:1;stroke:none;font-family:Magneto;-inkscape-font-specification:Magneto Bold" /><path
     inkscape:connector-curvature="0"
     d="m 400.92487,568.03788 c -0.43754,1.60417 -1.43753,2.86458 -3,3.78125 -1.39586,0.8125 -2.98961,1.21875 -4.78125,1.21875 l -17.40625,0 c -10.125,0 -15.1875,-3.05208 -15.1875,-9.15625 0,-3.91665 1.72917,-6.98957 5.1875,-9.21875 2.97916,-1.91665 6.52083,-2.87498 10.625,-2.875 l 4.53125,0 c 2.64581,2e-5 4.96873,0.40627 6.96875,1.21875 2.66664,1.08335 4.06247,2.72918 4.1875,4.9375 0.10414,2.22918 -0.96878,4.08334 -3.21875,5.5625 l -10.34375,0 3.375,-6.71875 -6.59375,0 -2.5625,7.53125 c -0.14584,0.43751 -0.21876,0.83334 -0.21875,1.1875 -10e-6,1.6875 1.35416,2.53125 4.0625,2.53125 z"
     id="path2999"
     style="font-size:64px;font-style:normal;font-variant:normal;font-weight:bold;font-stretch:normal;text-align:start;line-height:125%;letter-spacing:0px;word-spacing:0px;writing-mode:lr-tb;text-anchor:start;fill:#cccccc;fill-opacity:1;stroke:none;font-family:Magneto;-inkscape-font-specification:Magneto Bold" /><path
     inkscape:connector-curvature="0"
     d="m 450.95612,551.78788 -5.65625,16.25 c -1.54171,3.33333 -4.13545,5 -7.78125,5 l -15.8125,0 c -2.77085,0 -4.31251,-0.91667 -4.625,-2.75 -1.52084,1.83333 -3.71876,2.75 -6.59375,2.75 l -5.5625,0 c -3.08333,0 -4.625,-1.09375 -4.625,-3.28125 0,-0.52083 0.11459,-1.09375 0.34375,-1.71875 l 5.6875,-16.25 11.34375,0 -5.84375,16.25 5.4375,0 5.84375,-16.25 11.1875,0 -5.6875,16.25 5.3125,0 5.8125,-16.25 z"
     id="path3001"
     style="font-size:64px;font-style:normal;font-variant:normal;font-weight:bold;font-stretch:normal;text-align:start;line-height:125%;letter-spacing:0px;word-spacing:0px;writing-mode:lr-tb;text-anchor:start;fill:#cccccc;fill-opacity:1;stroke:none;font-family:Magneto;-inkscape-font-specification:Magneto Bold" /><path
     inkscape:connector-curvature="0"
     d="m 506.95612,551.78788 c -0.83338,3.33335 -3.33338,5.00001 -7.5,5 l -19.5625,0 c 0.68748,0.45835 1.24998,1.29689 1.6875,2.51562 0.43748,1.21877 0.61456,2.27606 0.53125,3.17188 -0.29169,3.47917 -1.82294,6.20834 -4.59375,8.1875 -2.64585,1.89583 -6.08335,2.85416 -10.3125,2.875 -4.91667,0.0417 -8.69792,-0.92708 -11.34375,-2.90625 -2.35416,-1.75 -3.53125,-4.05208 -3.53125,-6.90625 0,-0.56249 0.0521,-1.12499 0.15625,-1.6875 0.54167,-3.14582 2.10417,-5.61457 4.6875,-7.40625 2.75,-1.89581 6.41666,-2.84373 11,-2.84375 z m -34.0625,5 -7.15625,0 -2.8125,8 c -0.14584,0.41667 -0.21876,0.81251 -0.21875,1.1875 -10e-6,1.79167 1.66666,2.6875 5,2.6875 0.39582,0 0.73957,-0.0104 1.03125,-0.0312 z"
     id="path3003"
     style="font-size:64px;font-style:normal;font-variant:normal;font-weight:bold;font-stretch:normal;text-align:start;line-height:125%;letter-spacing:0px;word-spacing:0px;writing-mode:lr-tb;text-anchor:start;fill:#cccccc;fill-opacity:1;stroke:none;font-family:Magneto;-inkscape-font-specification:Magneto Bold" /><path
     inkscape:connector-curvature="0"
     d="m 527.61237,568.03788 c -3e-5,1.45834 -0.80212,2.6875 -2.40625,3.6875 -1.4167,0.875 -2.89586,1.3125 -4.4375,1.3125 l -11.96875,0 c -3.16668,0 -4.75001,-1.3125 -4.75,-3.9375 -10e-6,-0.66666 0.13541,-1.38541 0.40625,-2.15625 l 3.53125,-10.15625 -6.65625,0 -3.46875,8.96875 c -0.58334,1.52084 -1.84375,2.28125 -3.78125,2.28125 l -3.3125,0 4.09375,-11.25 c -1.29167,-0.29165 -2.33854,-0.94269 -3.14062,-1.95313 -0.80208,-1.01039 -1.20313,-2.17185 -1.20313,-3.48437 0,-2.39581 1.11459,-4.24998 3.34375,-5.5625 1.85417,-1.08331 4.0625,-1.62497 6.625,-1.625 l 5.0625,0 -2.625,7.625 17.28125,0 -5.6875,16.25 z"
     id="path3005"
     style="font-size:64px;font-style:normal;font-variant:normal;font-weight:bold;font-stretch:normal;text-align:start;line-height:125%;letter-spacing:0px;word-spacing:0px;writing-mode:lr-tb;text-anchor:start;fill:#cccccc;fill-opacity:1;stroke:none;font-family:Magneto;-inkscape-font-specification:Magneto Bold" /><path
     inkscape:connector-curvature="0"
     d="m 570.51862,568.03788 c -0.52087,1.83334 -1.71879,3.1875 -3.59375,4.0625 -1.31253,0.625 -2.71878,0.9375 -4.21875,0.9375 l -12.28125,0 c -2.85418,0 -4.28126,-1.10417 -4.28125,-3.3125 -1e-5,-0.6875 0.14582,-1.4375 0.4375,-2.25 l 3.21875,-8.71875 c -0.95835,1.00001 -4.78126,4.47918 -11.46875,10.4375 -1.64584,1.5 -2.89584,2.47917 -3.75,2.9375 -1.125,0.60417 -2.47917,0.90625 -4.0625,0.90625 l -4.65625,0 13.3125,-37.6875 11.25,0 -8.3125,23.34375 12.46875,-12.40625 7.1875,0 -7.25,7.5 2.375,0 c 2.8958,2e-5 4.34372,1.1146 4.34375,3.34375 -3e-5,0.70835 -0.1667,1.53126 -0.5,2.46875 l -3.0625,8.4375 z"
     id="path3007"
     style="font-size:64px;font-style:normal;font-variant:normal;font-weight:bold;font-stretch:normal;text-align:start;line-height:125%;letter-spacing:0px;word-spacing:0px;writing-mode:lr-tb;text-anchor:start;fill:#cccccc;fill-opacity:1;stroke:none;font-family:Magneto;-inkscape-font-specification:Magneto Bold" /><path
     inkscape:connector-curvature="0"
     d="m 608.39362,568.03788 c -0.0834,1.39584 -0.88024,2.57813 -2.39062,3.54687 -1.51045,0.96875 -3.16149,1.45313 -4.95313,1.45313 l -23.75,0 c -4.5625,0 -6.84375,-1.39583 -6.84375,-4.1875 0,-0.25 0.0208,-0.52083 0.0625,-0.8125 0.16667,-1.25 0.83334,-2.21874 2,-2.90625 1,-0.60416 2.14583,-0.89583 3.4375,-0.875 2.25,0.0625 5.30208,1.30209 9.15625,3.71875 1.10415,-1.37499 1.65624,-2.77083 1.65625,-4.1875 -1e-5,-0.70832 -0.44793,-2.32291 -1.34375,-4.84375 l -3.53125,3.21875 -6.25,0 8.3125,-7.6875 c -0.37501,-0.64582 -0.63543,-1.17706 -0.78125,-1.59375 -0.27084,-0.77081 -0.41668,-1.64581 -0.4375,-2.625 l 7.6875,-8.1875 c 3.45831,0.58336 5.18748,2.15628 5.1875,4.71875 -2e-5,1.50002 -0.44794,2.88544 -1.34375,4.15625 0.77081,2.04169 1.55206,4.08335 2.34375,6.125 0.95831,2.62501 1.43748,4.75001 1.4375,6.375 -2e-5,1.79167 -0.70836,3.32292 -2.125,4.59375 z"
     id="path3009"
     style="font-size:64px;font-style:normal;font-variant:normal;font-weight:bold;font-stretch:normal;text-align:start;line-height:125%;letter-spacing:0px;word-spacing:0px;writing-mode:lr-tb;text-anchor:start;fill:#cccccc;fill-opacity:1;stroke:none;font-family:Magneto;-inkscape-font-specification:Magneto Bold" /></g></svg>